<?xml version="1.0" encoding="iso-8859-1"?>
<!-- Generator: Adobe Illustrator 19.0.0, SVG Export Plug-In . SVG Version: 6.00 Build 0)  -->
<svg xmlns="http://www.w3.org/2000/svg" xmlns:xlink="http://www.w3.org/1999/xlink" version="1.1" id="Capa_1" x="0px" y="0px" viewBox="0 0 512.001 512.001" style="enable-background:new 0 0 512.001 512.001;" xml:space="preserve">
<path style="fill:#EF3A47;" d="M259.641,293.254c58.823,0,106.507-47.685,106.507-106.507  c0-101.823-106.507-179.244-106.507-179.244h0.297c0,0-106.507,77.421-106.507,179.244c0,58.823,47.685,106.507,106.507,106.507  L259.641,293.254L259.641,293.254z"/>
<g>
	<path style="fill:#CE3043;" d="M259.64,7.502c0,0,0.061,0.044,0.148,0.109c0.088-0.065,0.148-0.109,0.148-0.109H259.64z"/>
	<path style="fill:#CE3043;" d="M259.937,293.254c-0.05,0-0.099-0.002-0.148-0.002c-0.05,0-0.099,0.002-0.148,0.002H259.937z"/>
	<path style="fill:#CE3043;" d="M366.148,186.746c0-99.736-102.17-176.048-106.359-179.135c-0.909,0.669-6.416,4.777-14.504,11.83   c29.196,25.462,91.855,89.203,91.855,167.305c0,53.85-39.967,98.359-91.855,105.499c4.742,0.653,9.583,0.999,14.504,1.006   C318.542,293.172,366.148,245.519,366.148,186.746z"/>
</g>
<path style="fill:#F7B081;" d="M350.935,378.893L350.935,378.893c0,10.296-7.659,18.985-17.874,20.277l-127.157,16.077l54.003,6.498  c50.406,6.065,101.441-3.932,145.834-28.567l49.471-27.453c9.641-5.35,12.468-17.905,6.052-26.871  c-5.365-7.496-15.438-9.884-23.596-5.592L350.935,378.893L350.935,378.893L350.935,378.893z"/>
<path style="fill:#DB9975;" d="M455.211,365.724c8.584-4.764,11.747-15.235,7.811-23.804l-118.15,63.21l-43.755-1.923  l-95.214,12.038l54.003,6.498c50.406,6.065,101.441-3.932,145.834-28.567L455.211,365.724z"/>
<g>
	<path style="fill:#F7B081;" d="M330.497,358.455c11.287,0,20.438,9.151,20.438,20.438l0,0l48.166-25.34   c9.298-4.891,12.551-16.607,7.106-25.591l0,0c-5.04-8.318-15.723-11.217-24.278-6.588l-68.519,37.082l0,0L330.497,358.455   L330.497,358.455z"/>
	<path style="fill:#F7B081;" d="M230.171,358.455l99.474-52.082c8.327-4.36,18.59-1.991,24.163,5.58l0,0   c6.854,9.31,3.896,22.529-6.271,28.031l-34.129,18.47L230.171,358.455z"/>
</g>
<path style="fill:#FFC89F;" d="M62.061,389.675c0,0,37.212-31.421,83.323-39.993c46.111-8.571,84.787,8.773,84.787,8.773h100.325  c11.287,0,20.438,9.151,20.438,20.438l0,0c0,10.296-7.659,18.985-17.874,20.277l-127.157,16.077l54.003,6.498  c50.406,6.065,101.441-3.932,145.834-28.567l67.566-37.495c9.18-4.832,20.508-2.305,26.762,5.973l0,0  c7.805,10.33,4.596,25.183-6.777,31.37l-98.799,53.745c-49.522,26.94-105.9,62.255-162.052,57.251L62.061,488.838H7.651v-99.163  H62.061z"/>
<path style="fill:#F7B081;" d="M500.068,361.655c-0.425-0.563-0.878-1.094-1.349-1.603c-1.507,5.208-4.999,9.869-10.214,12.705  l-98.799,53.745c-49.521,26.939-105.9,62.255-162.052,57.251L57.275,468.57H7.651v20.269h54.411l170.38,15.183  c56.152,5.004,112.531-30.312,162.052-57.251l98.799-53.745C504.664,386.838,507.873,371.985,500.068,361.655z"/>
<g>
	<path style="fill:#DB9975;" d="M313.41,358.455l34.129-18.47c8.846-4.787,12.23-15.414,8.447-24.228l-78.014,42.698H313.41z"/>
	<path style="fill:#DB9975;" d="M350.935,378.893L350.935,378.893l48.166-25.34c8.045-4.233,11.551-13.573,8.827-21.833   l-62.559,33.183C348.81,368.56,350.935,373.474,350.935,378.893z"/>
</g>
<path style="fill:#F9F1EF;" d="M302.519,146.938h-22.997V123.94c0-3.533-2.864-6.398-6.398-6.398h-22.873  c-3.533,0-6.397,2.864-6.397,6.398v22.998h-22.998c-3.533,0-6.397,2.864-6.397,6.397v22.874c0,3.533,2.864,6.397,6.397,6.397h22.998  v22.997c0,3.533,2.864,6.398,6.397,6.398h22.874c3.533,0,6.398-2.864,6.398-6.398v-22.997h22.997c3.533,0,6.398-2.864,6.398-6.397  v-22.874C308.917,149.803,306.053,146.938,302.519,146.938z"/>
<path d="M390.908,440.181c-5.082,2.766-10.238,5.619-15.457,8.506c-44.167,24.445-94.225,52.15-142.345,47.863l-86.878-7.742  c-4.125-0.377-7.77,2.679-8.138,6.807c-0.368,4.127,2.68,7.77,6.807,8.138l86.877,7.742c3.84,0.342,7.671,0.506,11.503,0.506  c48.76,0,96.744-26.556,139.438-50.185c5.187-2.871,10.311-5.706,15.362-8.454c3.64-1.981,4.984-6.536,3.005-10.175  C399.103,439.546,394.548,438.202,390.908,440.181z"/>
<path d="M506.053,357.132c-7.984-10.568-21.899-14.213-33.905-9.189c-0.307-4.797-1.935-9.472-4.784-13.455  c-7.507-10.491-21.774-13.871-33.19-7.865l-17.879,9.407c-0.229-4.191-1.467-8.315-3.674-11.956  c-7.124-11.755-22.174-15.839-34.264-9.298l-13.369,7.235c-0.24-5.184-1.999-10.24-5.138-14.504  c-7.824-10.629-21.99-13.901-33.685-7.778l-96.392,50.468c-10.829-4.151-45.386-15.395-85.76-7.889  c-41.656,7.743-75.763,32.883-84.608,39.866H7.651c-4.143,0-7.502,3.359-7.502,7.502v99.163c0,4.143,3.359,7.502,7.502,7.502h54.076  l57.346,5.11c0.226,0.02,0.451,0.03,0.674,0.03c3.842,0,7.116-2.936,7.463-6.837c0.368-4.126-2.68-7.77-6.807-8.138l-57.678-5.14  c-0.221-0.02-0.443-0.03-0.666-0.03H15.153v-84.159h46.908c1.769,0,3.483-0.628,4.835-1.767c0.358-0.302,36.34-30.264,79.858-38.353  c43.103-8.011,79.99,8.084,80.347,8.243c0.15,0.067,0.305,0.12,0.459,0.178c0.065,0.024,0.127,0.052,0.193,0.074  c0.34,0.116,0.689,0.204,1.042,0.27c0.081,0.015,0.163,0.027,0.245,0.039c0.374,0.057,0.75,0.096,1.13,0.096h83.238h17.087  c0.446,0,0.886,0.023,1.32,0.067c6.515,0.663,11.614,6.182,11.614,12.869c0,6.501-4.863,12.018-11.313,12.834L204.96,407.804  c-0.47,0.059-0.924,0.161-1.361,0.302c-3.056,0.983-5.209,3.849-5.199,7.164c0.001,0.473,0.047,0.937,0.133,1.388  c0.601,3.154,3.182,5.642,6.473,6.038l54.003,6.498c0.016,0.002,0.032,0.003,0.048,0.005c1.461,0.176,2.923,0.335,4.383,0.484  c0.453,0.047,0.906,0.089,1.359,0.133c1.061,0.103,2.123,0.2,3.183,0.289c0.478,0.04,0.956,0.081,1.434,0.118  c1.198,0.094,2.397,0.179,3.594,0.256c0.287,0.018,0.574,0.041,0.862,0.058c1.464,0.089,2.928,0.164,4.39,0.227  c0.413,0.018,0.826,0.031,1.239,0.047c1.075,0.041,2.15,0.077,3.224,0.104c0.503,0.013,1.006,0.024,1.508,0.034  c1.07,0.021,2.14,0.034,3.208,0.041c0.417,0.003,0.834,0.009,1.251,0.009c0.133,0,0.266,0.003,0.399,0.003  c1.342,0,2.684-0.011,4.024-0.033c0.278-0.005,0.555-0.014,0.833-0.02c1.207-0.023,2.413-0.054,3.618-0.096  c0.53-0.018,1.06-0.041,1.59-0.063c0.967-0.039,1.934-0.083,2.9-0.134c0.565-0.029,1.129-0.06,1.693-0.094  c0.978-0.058,1.957-0.123,2.933-0.193c0.512-0.036,1.024-0.07,1.536-0.11c1.385-0.107,2.77-0.224,4.153-0.355  c0.196-0.018,0.391-0.038,0.587-0.057c1.338-0.13,2.675-0.271,4.01-0.422c0.52-0.059,1.039-0.124,1.558-0.186  c0.958-0.115,1.917-0.234,2.873-0.36c0.566-0.075,1.132-0.152,1.698-0.23c0.945-0.131,1.891-0.269,2.834-0.412  c0.53-0.08,1.061-0.158,1.591-0.241c1.172-0.185,2.343-0.379,3.513-0.581c0.284-0.049,0.57-0.094,0.854-0.144  c1.426-0.251,2.851-0.517,4.273-0.793c0.483-0.094,0.965-0.194,1.447-0.291c0.972-0.195,1.944-0.394,2.914-0.6  c0.553-0.118,1.105-0.239,1.657-0.36c0.926-0.204,1.851-0.414,2.775-0.629c0.533-0.124,1.067-0.247,1.6-0.375  c1.07-0.256,2.138-0.522,3.204-0.793c0.365-0.093,0.732-0.181,1.097-0.275c1.407-0.364,2.812-0.742,4.214-1.131  c0.424-0.118,0.846-0.242,1.269-0.362c1.005-0.285,2.01-0.574,3.012-0.872c0.525-0.156,1.049-0.316,1.573-0.476  c0.923-0.281,1.845-0.568,2.765-0.86c0.517-0.164,1.033-0.328,1.549-0.495c1.017-0.33,2.033-0.67,3.047-1.014  c0.394-0.134,0.788-0.263,1.181-0.398c1.39-0.479,2.777-0.971,4.16-1.475c0.324-0.118,0.647-0.242,0.971-0.362  c1.074-0.397,2.147-0.8,3.216-1.212c0.483-0.186,0.964-0.376,1.446-0.566c0.93-0.365,1.86-0.736,2.787-1.113  c0.489-0.199,0.978-0.398,1.466-0.6c0.989-0.41,1.976-0.827,2.961-1.25c0.394-0.169,0.789-0.335,1.183-0.506  c1.372-0.597,2.742-1.206,4.105-1.83c0.165-0.075,0.328-0.154,0.493-0.229c1.198-0.55,2.393-1.111,3.584-1.681  c0.43-0.206,0.858-0.416,1.287-0.624c0.942-0.458,1.883-0.921,2.821-1.391c0.459-0.23,0.917-0.461,1.375-0.694  c0.96-0.488,1.917-0.984,2.872-1.486c0.392-0.206,0.786-0.409,1.178-0.618c1.337-0.711,2.672-1.431,3.999-2.169l49.47-27.454  c0.003-0.001,0.005-0.003,0.007-0.004l18.006-9.993c5.946-3.09,13.176-1.46,17.218,3.89c2.403,3.18,3.298,7.237,2.457,11.132  s-3.332,7.221-6.832,9.125l-76.665,41.704c-3.64,1.98-4.984,6.536-3.005,10.175c1.979,3.64,6.534,4.984,10.175,3.005l76.665-41.704  c7.341-3.994,12.564-10.969,14.328-19.137C512.969,372.31,511.091,363.801,506.053,357.132z M441.16,339.901  c4.816-2.534,10.836-1.107,14.001,3.318c1.843,2.573,2.474,5.691,1.778,8.777c-0.695,3.087-2.602,5.632-5.369,7.167l-49.471,27.454  c-39.812,22.093-84.349,31.954-129.472,28.798c-1.685-0.118-3.372-0.249-5.058-0.403l66.432-8.399  c0.709-0.09,1.406-0.212,2.097-0.353c0.093-0.019,0.186-0.035,0.279-0.055c0.653-0.14,1.296-0.306,1.931-0.491  c0.115-0.034,0.231-0.068,0.346-0.103c0.626-0.191,1.242-0.402,1.848-0.635c0.101-0.039,0.201-0.081,0.302-0.121  c0.621-0.247,1.233-0.511,1.832-0.8c0.043-0.021,0.086-0.044,0.129-0.066c0.587-0.288,1.161-0.597,1.724-0.924  c0.064-0.037,0.13-0.072,0.194-0.11c0.558-0.33,1.1-0.682,1.631-1.049c0.097-0.067,0.194-0.133,0.289-0.2  c0.515-0.365,1.016-0.746,1.504-1.144c0.093-0.076,0.184-0.153,0.276-0.23c0.49-0.41,0.968-0.833,1.428-1.274  c0.061-0.058,0.118-0.119,0.178-0.177c0.454-0.444,0.894-0.901,1.317-1.374c0.034-0.038,0.07-0.075,0.104-0.113  c0.428-0.484,0.835-0.987,1.23-1.5c0.07-0.091,0.142-0.181,0.211-0.274c0.374-0.499,0.73-1.012,1.07-1.535  c0.071-0.109,0.14-0.218,0.209-0.327c0.334-0.53,0.653-1.07,0.952-1.623c0.052-0.096,0.1-0.194,0.151-0.291  c0.305-0.58,0.595-1.168,0.859-1.772c0.012-0.029,0.024-0.058,0.036-0.086c0.257-0.592,0.49-1.197,0.707-1.81  c0.035-0.099,0.073-0.197,0.107-0.296c0.206-0.603,0.388-1.215,0.552-1.836c0.034-0.127,0.067-0.254,0.099-0.381  c0.155-0.618,0.29-1.244,0.403-1.878c0.009-0.048,0.023-0.095,0.031-0.144l44.562-23.445c0.006-0.003,0.012-0.007,0.018-0.01  L441.16,339.901z M385.498,327.972c5.043-2.729,11.319-1.025,14.291,3.877c1.549,2.559,1.963,5.555,1.162,8.437  c-0.8,2.882-2.699,5.236-5.346,6.627l-39.51,20.787c-0.07-0.159-0.148-0.313-0.221-0.471c-0.094-0.205-0.188-0.41-0.287-0.612  c-0.105-0.214-0.216-0.425-0.327-0.637c-0.104-0.199-0.208-0.397-0.316-0.593c-0.115-0.208-0.235-0.413-0.355-0.617  c-0.114-0.194-0.228-0.386-0.347-0.577c-0.124-0.2-0.253-0.398-0.382-0.595c-0.124-0.188-0.248-0.375-0.376-0.56  c-0.133-0.193-0.269-0.383-0.407-0.572c-0.134-0.183-0.269-0.365-0.407-0.544c-0.141-0.184-0.284-0.366-0.43-0.547  c-0.143-0.178-0.289-0.353-0.437-0.526c-0.149-0.176-0.299-0.351-0.453-0.523c-0.152-0.171-0.308-0.339-0.465-0.507  c-0.156-0.167-0.314-0.334-0.474-0.497c-0.162-0.165-0.328-0.326-0.494-0.487c-0.163-0.158-0.325-0.315-0.492-0.469  c-0.173-0.159-0.349-0.314-0.525-0.468c-0.168-0.148-0.336-0.296-0.507-0.44c-0.184-0.153-0.371-0.301-0.559-0.45  c-0.172-0.136-0.342-0.274-0.517-0.407c-0.196-0.148-0.396-0.289-0.596-0.432c-0.174-0.125-0.347-0.252-0.525-0.373  c-0.209-0.143-0.424-0.278-0.637-0.415c-0.174-0.112-0.345-0.227-0.522-0.335c-0.233-0.143-0.472-0.277-0.71-0.413  c-0.163-0.093-0.323-0.191-0.487-0.28c-0.301-0.164-0.609-0.319-0.917-0.472c-0.107-0.053-0.211-0.111-0.318-0.163  c-0.415-0.2-0.835-0.39-1.261-0.57c-0.156-0.066-0.316-0.124-0.473-0.187c-0.275-0.11-0.549-0.222-0.829-0.324  c-0.021-0.008-0.042-0.017-0.063-0.024l11.134-6.026c0.005-0.003,0.009-0.005,0.014-0.008L385.498,327.972z M333.124,313.02  c1.72-0.9,3.561-1.333,5.38-1.333c3.554,0,7.012,1.657,9.263,4.714c2.009,2.728,2.708,6.052,1.969,9.358  c-0.739,3.306-2.788,6.016-5.768,7.627l-32.458,17.566h-50.835L333.124,313.02z"/>
<path d="M273.124,110.041h-22.873c-7.664,0-13.899,6.235-13.899,13.9v15.495h-15.495c-7.664,0-13.899,6.235-13.899,13.9v22.874  c0,7.664,6.235,13.899,13.899,13.899h15.495v15.494c0,7.664,6.235,13.9,13.899,13.9h22.873c7.664,0,13.899-6.235,13.899-13.9  v-15.494h15.495c7.664,0,13.9-6.235,13.9-13.899v-22.874c0-7.664-6.235-13.9-13.9-13.9h-15.495v-15.495  C287.023,116.277,280.789,110.041,273.124,110.041z M301.414,154.44v20.664h-21.893c-4.144,0-7.502,3.359-7.502,7.502v21.892  h-20.663v-21.892c0-4.143-3.359-7.502-7.502-7.502h-21.892V154.44h21.892c4.143,0,7.502-3.359,7.502-7.502v-21.892h20.663v21.892  c0,4.143,3.358,7.502,7.502,7.502H301.414z"/>
<path d="M259.538,300.756c0.034,0,0.068,0,0.103,0h0.297c0.034,0,0.068,0,0.102,0c62.681-0.218,113.61-51.279,113.61-114.01  c0-43.404-19.013-89.255-54.984-132.597c-23.542-28.366-46.823-46.814-53.042-51.54C264.229,0.988,262.17,0,259.937,0h-0.297  c-2.23,0-4.284,0.985-5.679,2.602c-8.03,6.094-44.294,34.867-72.796,78.1c-2.281,3.459-1.325,8.112,2.135,10.393  c3.459,2.282,8.111,1.325,10.393-2.135c24.045-36.471,54.679-62.723,66.099-71.856c8.631,6.897,28.214,23.541,47.565,46.91  c42.392,51.202,51.291,95.004,51.291,122.733c0,54.542-44.334,98.924-98.857,99.006c-54.524-0.081-98.857-44.464-98.857-99.006  c0-25.267,6.974-51.336,20.729-77.481c1.929-3.666,0.52-8.203-3.147-10.132c-3.667-1.928-8.203-0.52-10.132,3.147  c-14.899,28.322-22.454,56.741-22.454,84.467C145.927,249.477,196.857,300.538,259.538,300.756z"/>
<g>
</g>
<g>
</g>
<g>
</g>
<g>
</g>
<g>
</g>
<g>
</g>
<g>
</g>
<g>
</g>
<g>
</g>
<g>
</g>
<g>
</g>
<g>
</g>
<g>
</g>
<g>
</g>
<g>
</g>
</svg>
